<svg width="480" height="448" viewBox="0 0 480 448" fill="none" xmlns="http://www.w3.org/2000/svg">
<path d="M45.1 192C29 192 16 179 16 162.9C16 161 16.2 159.2 16.6 157.3C21.9 136.3 62.8 0 240 0C417.2 0 458.1 136.3 463.4 157.3C463.9 159.2 464 161 464 162.9C464 179 451 192 434.9 192H45.1ZM128 96C128 91.7565 126.314 87.6869 123.314 84.6863C120.313 81.6857 116.243 80 112 80C107.757 80 103.687 81.6857 100.686 84.6863C97.6857 87.6869 96 91.7565 96 96C96 100.243 97.6857 104.313 100.686 107.314C103.687 110.314 107.757 112 112 112C116.243 112 120.313 110.314 123.314 107.314C126.314 104.313 128 100.243 128 96ZM368 112C372.243 112 376.313 110.314 379.314 107.314C382.314 104.313 384 100.243 384 96C384 91.7565 382.314 87.6869 379.314 84.6863C376.313 81.6857 372.243 80 368 80C363.757 80 359.687 81.6857 356.686 84.6863C353.686 87.6869 352 91.7565 352 96C352 100.243 353.686 104.313 356.686 107.314C359.687 110.314 363.757 112 368 112ZM256 64C256 59.7565 254.314 55.6869 251.314 52.6863C248.313 49.6857 244.243 48 240 48C235.757 48 231.687 49.6857 228.686 52.6863C225.686 55.6869 224 59.7565 224 64C224 68.2435 225.686 72.3131 228.686 75.3137C231.687 78.3143 235.757 80 240 80C244.243 80 248.313 78.3143 251.314 75.3137C254.314 72.3131 256 68.2435 256 64ZM0 272C0 245.5 21.5 224 48 224H432C458.5 224 480 245.5 480 272C480 298.5 458.5 320 432 320H48C21.5 320 0 298.5 0 272ZM16 368C16 359.2 23.2 352 32 352H448C456.8 352 464 359.2 464 368V384C464 419.3 435.3 448 400 448H80C44.7 448 16 419.3 16 384V368Z" fill="#1E3050"/>
</svg>
