<svg width="448" height="512" viewBox="0 0 448 512" fill="none" xmlns="http://www.w3.org/2000/svg">
<g clip-path="url(#clip0_15_41)">
<path d="M128 0C145.7 0 160 14.3 160 32V64H288V32C288 14.3 302.3 0 320 0C337.7 0 352 14.3 352 32V64H400C426.5 64 448 85.5 448 112V160H0V112C0 85.5 21.5 64 48 64H96V32C96 14.3 110.3 0 128 0ZM0 192H448V464C448 490.5 426.5 512 400 512H48C21.5 512 0 490.5 0 464V192ZM329 305C338.4 295.6 338.4 280.4 329 271.1C319.6 261.8 304.4 261.7 295.1 271.1L200.1 366.1L153.1 319.1C143.7 309.7 128.5 309.7 119.2 319.1C109.9 328.5 109.8 343.7 119.2 353L183.2 417C192.6 426.4 207.8 426.4 217.1 417L329 305Z" fill="#1E3050"/>
</g>
<defs>
<clipPath id="clip0_15_41">
<rect width="448" height="512" fill="white"/>
</clipPath>
</defs>
</svg>
