<svg width="512" height="503" viewBox="0 0 512 503" fill="none" xmlns="http://www.w3.org/2000/svg">
<path d="M256 183H0.1C2.7 108.9 41.3 43.9 99 5.09996C112.3 -3.80004 129.8 0.79996 138.9 13.9L256 183ZM384 151C384 115.7 412.7 87 448 87H480C497.7 87 512 101.3 512 119C512 136.7 497.7 151 480 151H448V215C448 240.2 442.2 265.2 431 288.5C419.8 311.8 403.2 333 382.4 350.8C361.6 368.6 336.9 382.8 309.7 392.4C282.5 402 253.4 407 224 407C194.6 407 165.5 402 138.3 392.4C111.1 382.8 86.4 368.6 65.6 350.8C44.8 333 28.3 311.8 17 288.5C5.7 265.2 0 240.2 0 215H224H384V151ZM80 407C92.7304 407 104.939 412.057 113.941 421.059C122.943 430.061 128 442.27 128 455C128 467.73 122.943 479.939 113.941 488.941C104.939 497.943 92.7304 503 80 503C67.2696 503 55.0606 497.943 46.0589 488.941C37.0571 479.939 32 467.73 32 455C32 442.27 37.0571 430.061 46.0589 421.059C55.0606 412.057 67.2696 407 80 407ZM320 455C320 442.27 325.057 430.061 334.059 421.059C343.061 412.057 355.27 407 368 407C380.73 407 392.939 412.057 401.941 421.059C410.943 430.061 416 442.27 416 455C416 467.73 410.943 479.939 401.941 488.941C392.939 497.943 380.73 503 368 503C355.27 503 343.061 497.943 334.059 488.941C325.057 479.939 320 467.73 320 455Z" fill="#1E3050"/>
</svg>
