<svg width="22" height="19" viewBox="0 0 22 19" fill="none" xmlns="http://www.w3.org/2000/svg">
<path d="M4.52502 19C4.07502 19 3.67502 18.8625 3.32502 18.5875C2.97502 18.3125 2.73336 17.9583 2.60002 17.525L0.0500248 8.275C-0.0333085 7.95833 0.0208581 7.66667 0.212525 7.4C0.404191 7.13333 0.666691 7 1.00002 7H5.75002L10.15 0.45C10.2334 0.316667 10.35 0.208333 10.5 0.125C10.65 0.0416667 10.8084 0 10.975 0C11.1417 0 11.3 0.0416667 11.45 0.125C11.6 0.208333 11.7167 0.316667 11.8 0.45L16.2 7H21C21.3334 7 21.5959 7.13333 21.7875 7.4C21.9792 7.66667 22.0334 7.95833 21.95 8.275L19.4 17.525C19.2667 17.9583 19.025 18.3125 18.675 18.5875C18.325 18.8625 17.925 19 17.475 19H4.52502ZM4.50002 17H17.5L19.7 9H2.30002L4.50002 17ZM11 15C11.55 15 12.0209 14.8042 12.4125 14.4125C12.8042 14.0208 13 13.55 13 13C13 12.45 12.8042 11.9792 12.4125 11.5875C12.0209 11.1958 11.55 11 11 11C10.45 11 9.97919 11.1958 9.58752 11.5875C9.19586 11.9792 9.00002 12.45 9.00002 13C9.00002 13.55 9.19586 14.0208 9.58752 14.4125C9.97919 14.8042 10.45 15 11 15ZM8.17502 7H13.8L10.975 2.8L8.17502 7Z" fill="white"/>
</svg>
