<svg width="576" height="512" viewBox="0 0 576 512" fill="none" xmlns="http://www.w3.org/2000/svg">
<path d="M253.3 35.1C259.4 23.3 254.8 8.80003 243.1 2.70003C231.4 -3.39997 216.8 1.20003 210.7 12.9L117.6 192H32C14.3 192 0 206.3 0 224C0 241.7 14.3 256 32 256L83.9 463.5C91 492 116.6 512 146 512H430C459.4 512 485 492 492.1 463.5L544 256C561.7 256 576 241.7 576 224C576 206.3 561.7 192 544 192H458.4L365.3 12.9C359.2 1.20003 344.7 -3.39997 332.9 2.70003C321.1 8.80003 316.6 23.3 322.7 35.1L404.3 192H171.7L253.3 35.1ZM192 304V400C192 408.8 184.8 416 176 416C167.2 416 160 408.8 160 400V304C160 295.2 167.2 288 176 288C184.8 288 192 295.2 192 304ZM288 288C296.8 288 304 295.2 304 304V400C304 408.8 296.8 416 288 416C279.2 416 272 408.8 272 400V304C272 295.2 279.2 288 288 288ZM416 304V400C416 408.8 408.8 416 400 416C391.2 416 384 408.8 384 400V304C384 295.2 391.2 288 400 288C408.8 288 416 295.2 416 304Z" fill="white"/>
</svg>
