<svg width="640" height="384" viewBox="0 0 640 384" fill="none" xmlns="http://www.w3.org/2000/svg">
<path d="M192 0C86 0 0 86 0 192C0 298 86 384 192 384H448C554 384 640 298 640 192C640 86 554 0 448 0H192ZM496 104C506.609 104 516.783 108.214 524.284 115.716C531.786 123.217 536 133.391 536 144C536 154.609 531.786 164.783 524.284 172.284C516.783 179.786 506.609 184 496 184C485.391 184 475.217 179.786 467.716 172.284C460.214 164.783 456 154.609 456 144C456 133.391 460.214 123.217 467.716 115.716C475.217 108.214 485.391 104 496 104ZM392 240C392 229.391 396.214 219.217 403.716 211.716C411.217 204.214 421.391 200 432 200C442.609 200 452.783 204.214 460.284 211.716C467.786 219.217 472 229.391 472 240C472 250.609 467.786 260.783 460.284 268.284C452.783 275.786 442.609 280 432 280C421.391 280 411.217 275.786 403.716 268.284C396.214 260.783 392 250.609 392 240ZM168 136C168 122.7 178.7 112 192 112C205.3 112 216 122.7 216 136V168H248C261.3 168 272 178.7 272 192C272 205.3 261.3 216 248 216H216V248C216 261.3 205.3 272 192 272C178.7 272 168 261.3 168 248V216H136C122.7 216 112 205.3 112 192C112 178.7 122.7 168 136 168H168V136Z" fill="#1E3050"/>
</svg>
