<svg width="288" height="512" viewBox="0 0 288 512" fill="none" xmlns="http://www.w3.org/2000/svg">
<path d="M0 144C0 105.809 15.1714 69.1819 42.1766 42.1766C69.1819 15.1714 105.809 0 144 0C182.191 0 218.818 15.1714 245.823 42.1766C272.829 69.1819 288 105.809 288 144C288 182.191 272.829 218.818 245.823 245.823C218.818 272.829 182.191 288 144 288C105.809 288 69.1819 272.829 42.1766 245.823C15.1714 218.818 0 182.191 0 144ZM144 80C152.8 80 160 72.8 160 64C160 55.2 152.8 48 144 48C91 48 48 91 48 144C48 152.8 55.2 160 64 160C72.8 160 80 152.8 80 144C80 108.7 108.7 80 144 80ZM112 480V317.1C122.4 319 133.1 320 144 320C154.9 320 165.6 319 176 317.1V480C176 497.7 161.7 512 144 512C126.3 512 112 497.7 112 480Z" fill="#FA0150"/>
</svg>
