<svg width="640" height="449" viewBox="0 0 640 449" fill="none" xmlns="http://www.w3.org/2000/svg">
<path d="M280 0.999903C266.7 0.999903 256 11.6999 256 24.9999C256 38.2999 266.7 48.9999 280 48.9999H337.7L354.1 79.2999L256 161L210.7 115.7C198.7 103.7 182.4 96.9999 165.4 96.9999H64C46.3 96.9999 32 111.3 32 129V161H128C216.4 161 288 232.6 288 321C288 332 286.9 342.7 284.8 353H355.2C353.1 342.7 352 332 352 321C352 268.8 377 222.4 415.7 193.2L431.1 221.8C402.4 245.3 384 281 384 321C384 391.7 441.3 449 512 449C582.7 449 640 391.7 640 321C640 250.3 582.7 193 512 193C498.5 193 485.5 195.1 473.3 199L418.2 96.9999H480C497.7 96.9999 512 82.6999 512 64.9999V32.9999C512 15.2999 497.7 0.999903 480 0.999903H459.6C452.1 0.999903 444.9 3.5999 439.1 8.3999L391.7 47.8999L377.7 21.8999C370.7 8.9999 357.2 0.899902 342.5 0.899902H280V0.999903ZM462.7 280.2L490.9 332.4C497.2 344.1 511.8 348.4 523.4 342.1C535 335.8 539.4 321.2 533.1 309.6L504.9 257.4C507.2 257.1 509.6 257 512 257C547.3 257 576 285.7 576 321C576 356.3 547.3 385 512 385C476.7 385 448 356.3 448 321C448 305.5 453.5 291.3 462.7 280.2ZM187.3 345C177.8 368.5 154.8 385 128 385C92.7 385 64 356.3 64 321C64 285.7 92.7 257 128 257C154.9 257 177.9 273.5 187.3 297H253.7C242.5 237.8 190.5 193 128 193C57.3 193 0 250.3 0 321C0 391.7 57.3 449 128 449C190.5 449 242.5 404.2 253.8 345H187.3ZM128 353C136.487 353 144.626 349.628 150.627 343.627C156.629 337.626 160 329.487 160 321C160 312.513 156.629 304.374 150.627 298.372C144.626 292.371 136.487 289 128 289C119.513 289 111.374 292.371 105.373 298.372C99.3714 304.374 96 312.513 96 321C96 329.487 99.3714 337.626 105.373 343.627C111.374 349.628 119.513 353 128 353Z" fill="#1E3050"/>
</svg>
