<svg width="448" height="450" viewBox="0 0 448 450" fill="none" xmlns="http://www.w3.org/2000/svg">
<path d="M181.3 1.40016C198.7 4.30016 210.5 20.8001 207.6 38.2001L197.8 97.0002H292.9L304.4 27.7002C307.3 10.3002 323.8 -1.49984 341.2 1.40016C358.6 4.30016 370.4 20.8001 367.5 38.2001L357.8 97.0002H416C433.7 97.0002 448 111.3 448 129C448 146.7 433.7 161 416 161H347.1L325.8 289H384C401.7 289 416 303.3 416 321C416 338.7 401.7 353 384 353H315.1L303.6 422.3C300.7 439.7 284.2 451.5 266.8 448.6C249.4 445.7 237.6 429.2 240.5 411.8L250.3 353.1H155.1L143.6 422.4C140.7 439.8 124.2 451.6 106.8 448.7C89.4 445.8 77.6 429.3 80.5 411.9L90.2 353H32C14.3 353 0 338.7 0 321C0 303.3 14.3 289 32 289H100.9L122.2 161H64C46.3 161 32 146.7 32 129C32 111.3 46.3 97.0002 64 97.0002H132.9L144.4 27.7002C147.3 10.3002 163.8 -1.49984 181.2 1.40016H181.3ZM187.1 161L165.8 289H260.9L282.2 161H187.1Z" fill="#1E3050"/>
</svg>
