<svg width="459" height="459" viewBox="0 0 459 459" fill="none" xmlns="http://www.w3.org/2000/svg">
<path fill-rule="evenodd" clip-rule="evenodd" d="M459 229.5C459 356.249 356.249 459 229.5 459C102.751 459 0 356.249 0 229.5C0 102.751 102.751 0 229.5 0C356.249 0 459 102.751 459 229.5ZM229.5 356C299.364 356 356 299.364 356 229.5C356 159.636 299.364 103 229.5 103C159.636 103 103 159.636 103 229.5C103 299.364 159.636 356 229.5 356Z" fill="#1E3050"/>
<path d="M235.051 304.989C224.114 304.989 214.384 303.213 205.861 299.662C197.385 296.063 190.733 291.163 185.903 284.96C181.074 278.758 178.659 271.726 178.659 263.866C178.659 257.806 180.032 252.242 182.778 247.176C185.572 242.062 189.36 237.825 194.142 234.463C198.924 231.054 204.275 228.876 210.193 227.929V226.935C202.428 225.372 196.131 221.608 191.301 215.642C186.472 209.629 184.057 202.645 184.057 194.69C184.057 187.162 186.259 180.462 190.662 174.591C195.065 168.672 201.102 164.032 208.773 160.67C216.491 157.261 225.25 155.557 235.051 155.557C244.852 155.557 253.588 157.261 261.259 160.67C268.976 164.08 275.037 168.743 279.44 174.662C283.844 180.533 286.069 187.209 286.116 194.69C286.069 202.692 283.607 209.676 278.73 215.642C273.853 221.608 267.603 225.372 259.98 226.935V227.929C265.804 228.876 271.083 231.054 275.818 234.463C280.6 237.825 284.388 242.062 287.182 247.176C290.023 252.242 291.467 257.806 291.514 263.866C291.467 271.726 289.028 278.758 284.199 284.96C279.369 291.163 272.693 296.063 264.17 299.662C255.695 303.213 245.989 304.989 235.051 304.989ZM235.051 282.403C239.928 282.403 244.189 281.527 247.835 279.776C251.481 277.976 254.322 275.514 256.358 272.389C258.441 269.217 259.483 265.571 259.483 261.452C259.483 257.238 258.418 253.521 256.287 250.301C254.156 247.034 251.268 244.477 247.622 242.631C243.976 240.737 239.786 239.79 235.051 239.79C230.364 239.79 226.173 240.737 222.48 242.631C218.787 244.477 215.875 247.034 213.744 250.301C211.661 253.521 210.619 257.238 210.619 261.452C210.619 265.571 211.637 269.217 213.673 272.389C215.709 275.514 218.574 277.976 222.267 279.776C225.96 281.527 230.222 282.403 235.051 282.403ZM235.051 217.418C239.123 217.418 242.745 216.589 245.918 214.932C249.09 213.275 251.576 210.978 253.375 208.043C255.174 205.107 256.074 201.722 256.074 197.886C256.074 194.098 255.174 190.784 253.375 187.943C251.576 185.055 249.114 182.806 245.989 181.196C242.864 179.539 239.218 178.71 235.051 178.71C230.932 178.71 227.286 179.539 224.114 181.196C220.941 182.806 218.455 185.055 216.656 187.943C214.904 190.784 214.028 194.098 214.028 197.886C214.028 201.722 214.928 205.107 216.727 208.043C218.527 210.978 221.012 213.275 224.185 214.932C227.357 216.589 230.979 217.418 235.051 217.418Z" fill="#1E3050"/>
</svg>
