<svg width="529" height="512" viewBox="0 0 529 512" fill="none" xmlns="http://www.w3.org/2000/svg">
<path d="M264 376.4L264.1 376.3L290.5 390.4L375.7 435.9L359.2 338.3L354.4 309.6L375.1 289.1L445.2 219.8L349.1 205.6L319.8 201.3L306.9 174.7L264.1 86.9L264 87.2V376.4ZM439.1 474.7C441.1 486.7 436.1 498.9 426.2 506C416.3 513.1 403.2 514 392.4 508.3L264.1 439.8L135.8 508.3C125 514 111.9 513.1 102 506C92.0999 498.9 87.1 486.7 89.1 474.7L113.8 329L9.59995 225.9C0.999946 217.4 -2.10005 204.7 1.69995 193.2C5.49995 181.7 15.3999 173.3 27.3999 171.5L171 150.3L235.4 18C240.8 7 251.9 0 264.2 0C276.5 0 287.6 7 293 18L357.3 150.3L500.9 171.5C512.9 173.3 522.9 181.7 526.6 193.2C530.3 204.7 527.3 217.4 518.7 225.9L414.5 329L439.1 474.7Z" fill="#FCD000"/>
</svg>
