<svg width="20" height="14" viewBox="0 0 20 14" fill="none" xmlns="http://www.w3.org/2000/svg">
<path fill-rule="evenodd" clip-rule="evenodd" d="M2.54989 14C1.69989 14 1.04156 13.7042 0.574893 13.1125C0.108226 12.5208 -0.0667741 11.8 0.0498926 10.95L1.09989 3.45C1.24989 2.45 1.69573 1.625 2.43739 0.975C3.17906 0.325 4.04989 0 5.04989 0H14.9499C15.9499 0 16.8207 0.325 17.5624 0.975C18.3041 1.625 18.7499 2.45 18.8999 3.45L19.9499 10.95C20.0666 11.8 19.8916 12.5208 19.4249 13.1125C18.9582 13.7042 18.2999 14 17.4499 14C17.0999 14 16.7749 13.9375 16.4749 13.8125C16.1749 13.6875 15.8999 13.5 15.6499 13.25L13.3999 11H6.59989L4.34989 13.25C4.09989 13.5 3.82489 13.6875 3.52489 13.8125C3.22489 13.9375 2.89989 14 2.54989 14ZM13.7124 4.7125C13.5207 4.90417 13.2832 5 12.9999 5C12.7166 5 12.4791 4.90417 12.2874 4.7125C12.0957 4.52083 11.9999 4.28333 11.9999 4C11.9999 3.71667 12.0957 3.47917 12.2874 3.2875C12.4791 3.09583 12.7166 3 12.9999 3C13.2832 3 13.5207 3.09583 13.7124 3.2875C13.9041 3.47917 13.9999 3.71667 13.9999 4C13.9999 4.28333 13.9041 4.52083 13.7124 4.7125ZM5.74989 8H7.24989V6.25H8.99989V4.75H7.24989V3H5.74989V4.75H3.99989V6.25H5.74989V8ZM15.7124 7.7125C15.5207 7.90417 15.2832 8 14.9999 8C14.7166 8 14.4791 7.90417 14.2874 7.7125C14.0957 7.52083 13.9999 7.28333 13.9999 7C13.9999 6.71667 14.0957 6.47917 14.2874 6.2875C14.4791 6.09583 14.7166 6 14.9999 6C15.2832 6 15.5207 6.09583 15.7124 6.2875C15.9041 6.47917 15.9999 6.71667 15.9999 7C15.9999 7.28333 15.9041 7.52083 15.7124 7.7125Z" fill="#1E3050"/>
</svg>
