<svg width="640" height="448" viewBox="0 0 640 448" fill="none" xmlns="http://www.w3.org/2000/svg">
<path d="M54.2 170.9C123.2 104.7 216.8 64 320 64C423.2 64 516.8 104.7 585.8 170.9C598.6 183.1 618.8 182.7 631 170C643.2 157.3 642.8 137 630.1 124.8C549.7 47.5 440.4 0 320 0C199.6 0 90.3 47.5 9.80003 124.7C-2.89997 137 -3.29997 157.2 8.90003 170C21.1 182.8 41.4 183.2 54.1 170.9H54.2ZM320 224C376.8 224 428.6 245.1 468.2 280C481.5 291.7 501.7 290.4 513.4 277.2C525.1 264 523.8 243.7 510.6 232C459.8 187.2 393 160 320 160C247 160 180.2 187.2 129.5 232C116.2 243.7 115 263.9 126.7 277.2C138.4 290.5 158.6 291.7 171.9 280C211.4 245.1 263.2 224 320.1 224H320ZM384 384C384 367.026 377.257 350.748 365.255 338.745C353.253 326.743 336.974 320 320 320C303.026 320 286.748 326.743 274.745 338.745C262.743 350.748 256 367.026 256 384C256 400.974 262.743 417.252 274.745 429.255C286.748 441.257 303.026 448 320 448C336.974 448 353.253 441.257 365.255 429.255C377.257 417.252 384 400.974 384 384Z" fill="#1E3050"/>
</svg>
